<svg xmlns="http://www.w3.org/2000/svg" width="32" height="32" fill="#0d6efd" class="bi bi-key" viewBox="0 0 16 16">
                  <path d="M0 8a4 4 0 0 1 7.465-2H14a.5.5 0 0 1 .354.146l1.5 1.5a.5.5 0 0 1 0 .708l-1.5 1.5a.5.5 0 0 1-.708 0L13 9.207l-.646.647a.5.5 0 0 1-.708 0L11 9.207l-.646.647a.5.5 0 0 1-.708 0L9 9.207l-.646.647a.5.5 0 0 1-.708 0L7 9.207l-.646.647a.5.5 0 0 1-.708 0L5 9.207l-.646.647a.5.5 0 0 1-.708 0L3 9.207l-.646.647a.5.5 0 0 1-.708 0L1 9.207l-.646.647a.5.5 0 0 1-.708 0L0 9.207V8z"/>
                </svg>